<svg width="255" height="55" viewBox="0 0 255 55" fill="none" xmlns="http://www.w3.org/2000/svg">
<path d="M14.776 36.456H18.52V14.52H11.128V21.384H8.2V11.976H32.584V21.384H29.656V14.52H22.408V36.456H26.152V39H14.776V36.456ZM54.9805 36.456V39H48.8845L48.6925 37.32C47.6685 38.088 46.6445 38.648 45.6205 39C44.5965 39.352 43.4445 39.528 42.1645 39.528C40.2445 39.528 38.6765 39 37.4605 37.944C36.2765 36.856 35.6845 35.512 35.6845 33.912C35.6845 31.864 36.3725 30.376 37.7485 29.448C39.1565 28.488 40.9965 28.008 43.2685 28.008C44.9005 28.008 46.6445 28.216 48.5005 28.632V26.664C48.5005 25.224 48.1005 24.136 47.3005 23.4C46.5325 22.664 45.4445 22.296 44.0365 22.296C43.1085 22.296 42.0365 22.456 40.8205 22.776C39.6365 23.064 38.5485 23.48 37.5565 24.024L36.5005 21.72C37.5565 21.048 38.7725 20.536 40.1485 20.184C41.5565 19.832 42.8685 19.656 44.0845 19.656C46.5485 19.656 48.4845 20.264 49.8925 21.48C51.3005 22.664 52.0045 24.28 52.0045 26.328V36.456H54.9805ZM39.0445 33.72C39.0445 34.712 39.3645 35.528 40.0045 36.168C40.6765 36.776 41.5725 37.08 42.6925 37.08C44.5805 37.08 46.5165 36.392 48.5005 35.016V30.696C46.8045 30.312 45.1405 30.12 43.5085 30.12C42.2285 30.12 41.1565 30.408 40.2925 30.984C39.4605 31.528 39.0445 32.44 39.0445 33.72ZM93.3831 36.456V39H83.2551V36.456H86.4231V26.616C86.4231 25.304 86.1031 24.28 85.4631 23.544C84.8231 22.808 83.9431 22.44 82.8231 22.44C80.8711 22.44 78.8231 23.16 76.6791 24.6C76.7751 25.08 76.8231 25.56 76.8231 26.04V36.456H80.2791V39H70.1511V36.456H73.3191V26.616C73.3191 25.304 72.9991 24.28 72.3591 23.544C71.7191 22.808 70.8391 22.44 69.7191 22.44C68.0871 22.44 66.1511 23.08 63.9111 24.36V36.456H67.3191V39H56.7591V36.456H60.4071V22.68H56.7591V20.136H63.9111V21.96C66.3431 20.424 68.5831 19.656 70.6311 19.656C71.8791 19.656 72.9671 19.928 73.8951 20.472C74.8231 20.984 75.5271 21.704 76.0071 22.632C77.4151 21.672 78.7271 20.936 79.9431 20.424C81.1591 19.912 82.4231 19.656 83.7351 19.656C85.5271 19.656 86.9991 20.216 88.1511 21.336C89.3351 22.424 89.9271 23.96 89.9271 25.944V36.456H93.3831ZM114.652 36.456V39H108.556L108.364 37.32C107.34 38.088 106.316 38.648 105.292 39C104.268 39.352 103.116 39.528 101.836 39.528C99.9164 39.528 98.3484 39 97.1324 37.944C95.9484 36.856 95.3564 35.512 95.3564 33.912C95.3564 31.864 96.0444 30.376 97.4204 29.448C98.8284 28.488 100.668 28.008 102.94 28.008C104.572 28.008 106.316 28.216 108.172 28.632V26.664C108.172 25.224 107.772 24.136 106.972 23.4C106.204 22.664 105.116 22.296 103.708 22.296C102.78 22.296 101.708 22.456 100.492 22.776C99.3084 23.064 98.2204 23.48 97.2284 24.024L96.1724 21.72C97.2284 21.048 98.4444 20.536 99.8204 20.184C101.228 19.832 102.54 19.656 103.756 19.656C106.22 19.656 108.156 20.264 109.564 21.48C110.972 22.664 111.676 24.28 111.676 26.328V36.456H114.652ZM98.7164 33.72C98.7164 34.712 99.0364 35.528 99.6764 36.168C100.348 36.776 101.244 37.08 102.364 37.08C104.252 37.08 106.188 36.392 108.172 35.016V30.696C106.476 30.312 104.812 30.12 103.18 30.12C101.9 30.12 100.828 30.408 99.9644 30.984C99.1324 31.528 98.7164 32.44 98.7164 33.72ZM143.68 23.448C147.008 24.024 149.392 24.904 150.832 26.088C152.304 27.24 153.04 29.064 153.04 31.56C153.04 33 152.704 34.328 152.032 35.544C151.36 36.728 150.368 37.688 149.056 38.424C147.744 39.128 146.192 39.48 144.4 39.48C142.736 39.48 141.216 39.144 139.84 38.472C138.496 37.8 137.392 36.872 136.528 35.688V39H133.408V29.88H136.288C136.48 31.896 137.28 33.544 138.688 34.824C140.128 36.072 141.984 36.696 144.256 36.696C145.92 36.696 147.216 36.296 148.144 35.496C149.072 34.696 149.536 33.576 149.536 32.136C149.536 30.984 149.328 30.088 148.912 29.448C148.496 28.776 147.824 28.264 146.896 27.912C146 27.528 144.704 27.192 143.008 26.904L141.856 26.712C139.136 26.264 137.024 25.4 135.52 24.12C134.016 22.808 133.264 21.048 133.264 18.84C133.264 16.504 134.032 14.696 135.568 13.416C137.104 12.104 139.168 11.448 141.76 11.448C143.232 11.448 144.56 11.704 145.744 12.216C146.96 12.696 147.936 13.4 148.672 14.328V11.976H151.744V19.608H148.912C148.304 16.024 145.984 14.232 141.952 14.232C140.32 14.232 139.04 14.616 138.112 15.384C137.216 16.152 136.768 17.176 136.768 18.456C136.768 19.8 137.248 20.856 138.208 21.624C139.168 22.36 140.624 22.904 142.576 23.256L143.68 23.448ZM164.63 39C160.982 39 159.158 37.144 159.158 33.432V22.68H156.038V20.136H159.158V13.704L162.71 12.312V20.136H167.702V22.68H162.71V33.24C162.71 34.424 162.902 35.256 163.286 35.736C163.67 36.216 164.326 36.456 165.254 36.456H168.134V39H164.63ZM193.468 36.456V39H186.556L186.46 36.696C184.156 38.552 181.836 39.48 179.5 39.48C177.388 39.48 175.804 38.888 174.748 37.704C173.724 36.52 173.212 35 173.212 33.144V22.68H170.044V20.136H176.764V32.76C176.764 33.976 177.052 34.936 177.628 35.64C178.236 36.312 179.132 36.648 180.316 36.648C182.492 36.648 184.54 35.768 186.46 34.008V22.68H183.052V20.136H189.964V36.456H193.468ZM217.504 36.456V39H210.976V37.656C209.216 38.904 207.216 39.528 204.976 39.528C203.216 39.528 201.6 39.128 200.128 38.328C198.656 37.528 197.488 36.376 196.624 34.872C195.76 33.336 195.328 31.56 195.328 29.544C195.328 27.496 195.744 25.72 196.576 24.216C197.408 22.712 198.528 21.576 199.936 20.808C201.344 20.04 202.896 19.656 204.592 19.656C205.68 19.656 206.784 19.832 207.904 20.184C209.024 20.504 210.048 20.984 210.976 21.624V13.992H207.616V11.496H214.528V36.456H217.504ZM199.024 29.832C199.024 32.008 199.648 33.72 200.896 34.968C202.176 36.216 203.792 36.84 205.744 36.84C207.568 36.84 209.312 36.264 210.976 35.112V24.168C210.08 23.592 209.136 23.144 208.144 22.824C207.152 22.504 206.208 22.344 205.312 22.344C203.424 22.344 201.904 23 200.752 24.312C199.6 25.624 199.024 27.464 199.024 29.832ZM223.442 43.752H225.602C226.498 43.752 227.186 43.688 227.666 43.56C228.146 43.432 228.562 43.144 228.914 42.696C229.298 42.248 229.65 41.544 229.97 40.584L230.978 37.8H229.49L222.482 22.68H218.978V20.136H228.866V22.68H226.082L231.746 35.496L236.786 22.68H233.522V20.136H243.362V22.68H240.29L233.282 40.104C232.578 41.928 231.986 43.24 231.506 44.04C231.058 44.872 230.402 45.512 229.538 45.96C228.674 46.408 227.458 46.632 225.89 46.632H223.442V43.752Z" fill="black"/>
<rect y="9" width="255" height="11" fill="#ECE315" fill-opacity="0.68"/>
</svg>
